HIERARCHY
ROOT joint_0
{
	OFFSET 0.000000 0.000000 0.000000
	CHANNELS 6 Xposition Yposition Zposition Zrotation Yrotation Xrotation 
	JOINT joint_1
	{
		OFFSET 0.511002 1.944000 108.288940
		CHANNELS 3 Zrotation Yrotation Xrotation
		JOINT joint_2
		{
			OFFSET -9.074005 1.512993 98.440063
			CHANNELS 3 Zrotation Yrotation Xrotation
			JOINT joint_3
			{
				OFFSET -8.590996 1.815002 98.366943
				CHANNELS 3 Zrotation Yrotation Xrotation
				JOINT joint_4
				{
					OFFSET 2.489998 3.531998 136.462036
					CHANNELS 3 Zrotation Yrotation Xrotation
					JOINT joint_5
					{
						OFFSET 22.708000 2.955002 80.357056
						CHANNELS 3 Zrotation Yrotation Xrotation
						End Site
						{
							OFFSET 0.000000 0.000000 0.000000
						}
					}
				}
				JOINT joint_6
				{
					OFFSET 2.860001 -27.684998 77.234009
					CHANNELS 3 Zrotation Yrotation Xrotation
					JOINT joint_7
					{
						OFFSET 5.449997 -131.244003 -18.851929
						CHANNELS 3 Zrotation Yrotation Xrotation
						JOINT joint_8
						{
							OFFSET 35.757000 -24.661995 -264.074097
							CHANNELS 3 Zrotation Yrotation Xrotation
							JOINT joint_9
							{
								OFFSET 49.392001 -1.747002 -239.960938
								CHANNELS 3 Zrotation Yrotation Xrotation
								End Site
								{
									OFFSET 0.000000 0.000000 0.000000
								}
							}
						}
					}
				}
				JOINT joint_10
				{
					OFFSET -0.127998 31.625000 75.753052
					CHANNELS 3 Zrotation Yrotation Xrotation
					JOINT joint_11
					{
						OFFSET -5.618004 131.132996 -19.557007
						CHANNELS 3 Zrotation Yrotation Xrotation
						JOINT joint_12
						{
							OFFSET 46.488998 30.127991 -261.826050
							CHANNELS 3 Zrotation Yrotation Xrotation
							JOINT joint_13
							{
								OFFSET 66.021003 0.474030 -235.934937
								CHANNELS 3 Zrotation Yrotation Xrotation
								End Site
								{
									OFFSET 0.000000 0.000000 0.000000
								}
							}
						}
					}
				}
			}
		}
	}
	JOINT joint_14
	{
		OFFSET 15.887001 -78.871004 -94.561035
		CHANNELS 3 Zrotation Yrotation Xrotation
		JOINT joint_15
		{
			OFFSET -4.133003 6.714001 -473.615967
			CHANNELS 3 Zrotation Yrotation Xrotation
			JOINT joint_16
			{
				OFFSET -19.541000 5.340000 -399.613007
				CHANNELS 3 Zrotation Yrotation Xrotation
				JOINT joint_17
				{
					OFFSET 164.317001 41.657999 -73.195000
					CHANNELS 3 Zrotation Yrotation Xrotation
					End Site
					{
						OFFSET 0.000000 0.000000 0.000000
					}
				}
			}
		}
	}
	JOINT joint_18
	{
		OFFSET 6.513000 77.960991 -96.406982
		CHANNELS 3 Zrotation Yrotation Xrotation
		JOINT joint_19
		{
			OFFSET -10.660004 -8.518997 -473.485016
			CHANNELS 3 Zrotation Yrotation Xrotation
			JOINT joint_20
			{
				OFFSET -36.967995 -11.098999 -398.260010
				CHANNELS 3 Zrotation Yrotation Xrotation
				JOINT joint_21
				{
					OFFSET 166.067997 30.363998 -74.785000
					CHANNELS 3 Zrotation Yrotation Xrotation
					End Site
					{
						OFFSET 0.000000 0.000000 0.000000
					}
				}
			}
		}
	}
}
MOTION
Frames: 9
Frame Time: 0.016667
-2561.648926 888.230469 1064.921997 -1.234378 4.795749 1.432849 -0.026011 -3.566984 -0.298044 0.219293 0.396957 0.070352 0.246049 -0.711972 -0.084483 0.306814 -6.474496 -0.161160 0.000000 0.000000 0.000000 -4.085475 0.577412 -2.035921 0.599837 0.198402 4.852106 -1.759781 4.960459 -9.186546 0.000000 0.000000 0.000000 -5.435336 4.057788 2.055433 0.777345 4.822481 -1.646676 1.612118 0.684684 5.503716 0.000000 0.000000 0.000000 -7.023594 -17.564695 -8.667606 -6.897113 27.472473 -0.545212 -10.735718 -8.568444 -2.253389 0.000000 0.000000 0.000000 0.296498 -1.131795 4.815357 0.456659 9.879921 -1.548106 0.667708 -0.382967 0.353070 0.000000 0.000000 0.000000 
-2551.554443 886.009766 1065.150024 -1.621485 4.840859 1.462474 -0.016609 -3.677497 -0.291686 0.159386 0.374392 0.111357 0.175365 -0.708597 -0.076750 0.323584 -6.351509 -0.223548 0.000000 0.000000 0.000000 -4.144909 0.234516 -1.530847 0.704127 -0.204010 4.520269 -1.690628 5.801799 -8.935962 0.000000 0.000000 0.000000 -5.245032 3.990807 1.574935 0.750231 4.746734 -1.571803 1.681980 1.284920 5.712625 0.000000 0.000000 0.000000 -6.762032 -17.554667 -8.518459 -6.882629 23.419826 -1.667936 -9.819877 -6.425269 -2.437472 0.000000 0.000000 0.000000 0.448025 -1.238652 4.804979 0.555006 11.217161 -1.435764 0.803312 -0.144313 0.365319 0.000000 0.000000 0.000000 
-2541.078857 883.350525 1064.921021 -1.784458 4.943299 1.421835 -0.084460 -3.918019 -0.171720 0.018910 0.420745 0.074223 0.037497 -0.766962 -0.070854 0.358853 -6.284699 -0.341625 0.000000 0.000000 0.000000 -4.248227 0.107848 -1.377098 0.779212 -0.358944 4.614712 -1.660556 6.048262 -8.886800 0.000000 0.000000 0.000000 -5.183772 4.063740 1.314357 0.711202 4.805285 -1.841941 1.745912 1.575020 5.901172 0.000000 0.000000 0.000000 -5.690808 -17.628767 -8.690133 -5.967244 19.763886 -1.454397 -7.869274 -4.216262 -2.206721 0.000000 0.000000 0.000000 0.639522 -1.692812 4.938945 0.704528 13.090903 -1.417570 1.017638 -0.031708 0.432007 0.000000 0.000000 0.000000 
-2530.304199 880.276001 1064.259033 -1.719277 5.023316 1.385150 -0.222912 -4.155784 -0.098069 -0.192562 0.481216 0.042542 -0.171025 -0.848315 -0.061001 0.399983 -6.257763 -0.472655 0.000000 0.000000 0.000000 -4.356986 0.090083 -1.432331 0.834215 -0.385708 4.906360 -1.631039 5.957103 -8.806508 0.000000 0.000000 0.000000 -5.189083 4.206690 1.165720 0.663165 4.929069 -2.319243 1.804716 1.673857 6.074005 0.000000 0.000000 0.000000 -4.115608 -17.548938 -9.082119 -4.469537 16.023926 -0.771854 -5.473205 -1.799651 -1.831071 0.000000 0.000000 0.000000 0.808563 -2.373701 5.166332 0.827108 15.413543 -1.492488 1.237079 0.068924 0.499658 0.000000 0.000000 0.000000 
-2519.386963 876.694092 1062.806030 -1.387563 4.954153 1.459242 -0.412327 -4.158415 -0.345808 -0.437750 0.498325 0.129763 -0.429061 -0.894995 -0.047925 0.416116 -6.253948 -0.512502 0.000000 0.000000 0.000000 -4.390993 0.124660 -1.604467 0.847850 -0.341341 5.134525 -1.553498 5.603305 -8.368112 0.000000 0.000000 0.000000 -5.240765 4.326079 1.103336 0.626488 5.030221 -2.877039 1.903004 1.654204 6.381557 0.000000 0.000000 0.000000 -2.994129 -17.271689 -9.409477 -3.421100 13.267365 -0.455026 -3.978603 0.049166 -1.675564 0.000000 0.000000 0.000000 0.744554 -3.235363 5.624056 0.718736 18.378356 -2.033803 1.216386 0.156146 0.465406 0.000000 0.000000 0.000000 
-2508.109619 872.427246 1060.140991 -0.802708 4.643851 1.565621 -0.620908 -3.844189 -0.751350 -0.714796 0.487350 0.213939 -0.721924 -0.892460 -0.034888 0.386344 -6.262361 -0.388982 0.000000 0.000000 0.000000 -4.309642 0.223455 -1.969450 0.816668 -0.205832 5.260780 -1.384130 4.945709 -7.314827 0.000000 0.000000 0.000000 -5.346955 4.419365 1.178516 0.608167 5.104524 -3.547314 2.065201 1.483333 6.904716 0.000000 0.000000 0.000000 -2.851106 -16.836420 -9.313231 -3.446864 12.383869 -0.621904 -3.930034 0.662983 -1.809996 0.000000 0.000000 0.000000 0.266565 -4.253275 6.568389 0.198082 22.173000 -3.297560 0.693370 0.522879 0.168969 0.000000 0.000000 0.000000 
-2496.689209 867.653259 1056.685059 -0.048285 4.225692 1.562294 -0.836544 -3.366227 -1.045722 -1.019137 0.471421 0.206320 -1.034401 -0.858287 -0.027568 0.331970 -6.290863 -0.177895 0.000000 0.000000 0.000000 -4.157530 0.377318 -2.436712 0.757058 0.000391 5.303590 -1.151142 4.020244 -5.911477 0.000000 0.000000 0.000000 -5.497843 4.494285 1.343018 0.602644 5.161075 -4.300426 2.267670 1.190778 7.562037 0.000000 0.000000 0.000000 -3.215305 -16.331419 -8.860818 -4.055877 12.732316 -0.902168 -4.633370 0.341672 -2.022853 0.000000 0.000000 0.000000 -0.453305 -5.457224 7.990284 -0.581303 26.476431 -5.104521 -0.208110 1.243524 -0.347745 0.000000 0.000000 0.000000 
-2485.939453 862.805115 1053.338013 0.753394 3.946386 1.402869 -1.032216 -2.911503 -1.226625 -1.300151 0.441065 0.205478 -1.326536 -0.787541 -0.022381 0.285322 -6.349249 0.004278 0.000000 0.000000 0.000000 -3.996703 0.497766 -2.687364 0.673156 0.159468 5.116037 -0.923276 3.018598 -4.619604 0.000000 0.000000 0.000000 -5.660473 4.477463 1.434628 0.609065 5.137405 -4.929664 2.481968 0.941161 8.258180 0.000000 0.000000 0.000000 -3.586627 -15.906878 -8.301096 -4.702634 13.444703 -1.108906 -5.423056 -0.454303 -2.150372 0.000000 0.000000 0.000000 -1.076782 -6.955650 9.707335 -1.302009 30.872040 -7.166794 -1.063725 1.822745 -0.820774 0.000000 0.000000 0.000000 
-2476.264160 857.551880 1050.154053 1.667824 3.994298 0.999918 -1.206327 -2.605246 -1.254805 -1.576559 0.389628 0.247507 -1.622271 -0.666100 -0.017826 0.260094 -6.468998 0.115147 0.000000 0.000000 0.000000 -3.812234 0.545852 -2.527469 0.542064 0.220837 4.511630 -0.704962 1.929562 -3.460566 0.000000 0.000000 0.000000 -5.832033 4.320116 1.382298 0.630479 4.994281 -5.282068 2.686867 0.818126 8.928216 0.000000 0.000000 0.000000 -3.826727 -15.658827 -7.604597 -5.280727 14.335039 -1.169895 -6.169387 -1.777004 -2.122913 0.000000 0.000000 0.000000 -1.544308 -9.088595 11.875354 -1.949875 35.788412 -9.541741 -1.684669 1.970674 -1.131269 0.000000 0.000000 0.000000 
